<svg width="25" height="12" viewBox="0 0 25 12" fill="none" xmlns="http://www.w3.org/2000/svg">
<path opacity="0.35" d="M1 3.00004C1 1.80342 1.97005 0.833374 3.16667 0.833374H19.8333C21.03 0.833374 22 1.80342 22 3.00004V9.00004C22 10.1967 21.03 11.1667 19.8333 11.1667H3.16667C1.97005 11.1667 1 10.1967 1 9.00004V3.00004Z" stroke="#1A1A1A"/>
<path opacity="0.4" d="M23.5 4.00006V8.00006C24.3047 7.66128 24.828 6.87319 24.828 6.00006C24.828 5.12693 24.3047 4.33884 23.5 4.00006Z" fill="#1A1A1A"/>
<path d="M2.5 3.66671C2.5 2.93033 3.09695 2.33337 3.83333 2.33337H19.1667C19.903 2.33337 20.5 2.93033 20.5 3.66671V8.33337C20.5 9.06975 19.903 9.66671 19.1667 9.66671H3.83333C3.09695 9.66671 2.5 9.06975 2.5 8.33337V3.66671Z" fill="#1A1A1A"/>
</svg>
