<svg width="16" height="13" viewBox="0 0 16 13" fill="none" xmlns="http://www.w3.org/2000/svg">
<path d="M13.6052 4.21967C13.3212 3.92678 12.8607 3.92678 12.5767 4.21967C12.2926 4.51256 12.2926 4.98744 12.5767 5.28033L13.5169 6.25H9.74138C9.44329 5.53629 8.75506 5.03663 7.95368 5.03663C7.15229 5.03663 6.46407 5.53629 6.16598 6.25H3.7657C3.46761 5.53629 2.77939 5.03662 1.978 5.03662C1.01719 5.03662 0.219044 5.75487 0.0608942 6.69911C0.0217325 6.79121 0 6.89299 0 7C0 7.0896 0.0152342 7.17552 0.0431771 7.25517C0.14595 8.26352 0.972983 9.04936 1.978 9.04936C2.8112 9.04936 3.52207 8.50924 3.79934 7.75H6.13234C6.4096 8.50924 7.12048 9.04937 7.95368 9.04937C8.78688 9.04937 9.49775 8.50924 9.77502 7.75H13.5169L12.5767 8.71967C12.2926 9.01256 12.2926 9.48744 12.5767 9.78033C12.8607 10.0732 13.3212 10.0732 13.6052 9.78033L15.787 7.53033C16.071 7.23744 16.071 6.76256 15.787 6.46967L13.6052 4.21967Z" fill="white"/>
</svg>
