<svg width="32" height="32" viewBox="0 0 32 32" fill="none" xmlns="http://www.w3.org/2000/svg">
<path d="M16 24C13.8782 24 11.8434 23.1571 10.3431 21.6568C8.84283 20.1565 7.99998 18.1217 7.99998 16C7.99998 13.8782 8.84283 11.8434 10.3431 10.3431C11.8434 8.84283 13.8782 7.99998 16 7.99998C18.1217 7.99998 20.1565 8.84283 21.6568 10.3431C23.1571 11.8434 24 13.8782 24 16C24 18.1217 23.1571 20.1565 21.6568 21.6568C20.1565 23.1571 18.1217 24 16 24ZM16 21.3333C17.4145 21.3333 18.771 20.7714 19.7712 19.7712C20.7714 18.771 21.3333 17.4145 21.3333 16C21.3333 14.5855 20.7714 13.2289 19.7712 12.2287C18.771 11.2285 17.4145 10.6666 16 10.6666C14.5855 10.6666 13.2289 11.2285 12.2287 12.2287C11.2285 13.2289 10.6666 14.5855 10.6666 16C10.6666 17.4145 11.2285 18.771 12.2287 19.7712C13.2289 20.7714 14.5855 21.3333 16 21.3333ZM14.6666 1.33331H17.3333V5.33331H14.6666V1.33331ZM14.6666 26.6666H17.3333V30.6666H14.6666V26.6666ZM4.68665 6.57198L6.57198 4.68665L9.39998 7.51465L7.51465 9.39998L4.68665 6.57331V6.57198ZM22.6 24.4853L24.4853 22.6L27.3133 25.428L25.428 27.3133L22.6 24.4853ZM25.428 4.68531L27.3133 6.57198L24.4853 9.39998L22.6 7.51465L25.428 4.68665V4.68531ZM7.51465 22.6L9.39998 24.4853L6.57198 27.3133L4.68665 25.428L7.51465 22.6ZM30.6666 14.6666V17.3333H26.6666V14.6666H30.6666ZM5.33331 14.6666V17.3333H1.33331V14.6666H5.33331Z" fill="#2463EB"/>
</svg>
