<svg width="32" height="32" viewBox="0 0 32 32" fill="none" xmlns="http://www.w3.org/2000/svg">
<path fill-rule="evenodd" clip-rule="evenodd" d="M16 29.3334C23.3638 29.3334 29.3334 23.3638 29.3334 16C29.3334 8.63622 23.3638 2.66669 16 2.66669C8.63622 2.66669 2.66669 8.63622 2.66669 16C2.66669 23.3638 8.63622 29.3334 16 29.3334ZM16 26.6667C21.8911 26.6667 26.6667 21.8911 26.6667 16C26.6667 10.109 21.8911 5.33335 16 5.33335C10.109 5.33335 5.33335 10.109 5.33335 16C5.33335 21.8911 10.109 26.6667 16 26.6667Z" fill="#2463EB"/>
<path fill-rule="evenodd" clip-rule="evenodd" d="M16 8.00002C16.7364 8.00002 17.3334 8.59697 17.3334 9.33335V14.6667H22.6667C23.4031 14.6667 24 15.2636 24 16C24 16.7364 23.4031 17.3334 22.6667 17.3334H17.3334V22.6667C17.3334 23.4031 16.7364 24 16 24C15.2636 24 14.6667 23.4031 14.6667 22.6667V17.3334H9.33335C8.59697 17.3334 8.00002 16.7364 8.00002 16C8.00002 15.2636 8.59697 14.6667 9.33335 14.6667H14.6667V9.33335C14.6667 8.59697 15.2636 8.00002 16 8.00002Z" fill="#2463EB"/>
</svg>
