<svg width="32" height="32" viewBox="0 0 32 32" fill="none" xmlns="http://www.w3.org/2000/svg">
<path d="M5.33335 24H12.6667V25.6666C12.6667 26.6391 12.2804 27.5717 11.5927 28.2594C10.9051 28.947 9.97248 29.3333 9.00002 29.3333C8.02756 29.3333 7.09493 28.947 6.4073 28.2594C5.71966 27.5717 5.33335 26.6391 5.33335 25.6666V24ZM10.6667 8.15998C13.3334 8.15998 14.6667 12 14.6667 14.6666C14.6667 16 14 17.3333 13.3334 19.3333L12.6667 21.3333H5.33335C5.33335 20 4.66669 18 4.66669 14.6666C4.66669 11.3333 7.33069 8.15998 10.6667 8.15998ZM26.7387 18.7973L26.4494 20.4387C26.2805 21.3964 25.7381 22.2479 24.9414 22.8058C24.1448 23.3636 23.1591 23.5822 22.2014 23.4133C21.2436 23.2445 20.3921 22.702 19.8342 21.9054C19.2764 21.1087 19.0578 20.1231 19.2267 19.1653L19.5174 17.5253L26.7387 18.7973ZM24.2374 2.27332C27.5227 2.85198 29.5947 6.43865 29.016 9.72132C28.4374 13.0053 27.4334 14.8586 27.2027 16.172L19.98 14.8986L19.6707 12.8133C19.3614 10.728 18.9374 9.29865 19.168 7.98665C19.6307 5.35998 21.6107 1.81065 24.2374 2.27332Z" fill="#2463EB"/>
</svg>
