<svg width="30" height="12" viewBox="0 0 30 12" fill="none" xmlns="http://www.w3.org/2000/svg">
<path d="M4.82068 11.2563C7.50867 11.2563 9.10535 9.1543 9.10535 5.59473C9.10535 4.25439 8.849 3.12646 8.35828 2.25488C7.64783 0.899902 6.42468 0.16748 4.87927 0.16748C2.57947 0.16748 0.953491 1.71289 0.953491 3.88086C0.953491 5.91699 2.41833 7.39648 4.4325 7.39648C5.67029 7.39648 6.67371 6.81787 7.17175 5.81445H7.19373C7.19373 5.81445 7.22302 5.81445 7.23035 5.81445C7.245 5.81445 7.29626 5.81445 7.29626 5.81445C7.29626 8.23145 6.38074 9.67432 4.83533 9.67432C3.92712 9.67432 3.224 9.17627 2.9823 8.37793H1.09998C1.41492 10.1138 2.88708 11.2563 4.82068 11.2563ZM4.8866 5.89502C3.67078 5.89502 2.80652 5.03076 2.80652 3.82227C2.80652 2.64307 3.71472 1.74219 4.89392 1.74219C6.07312 1.74219 6.98132 2.65771 6.98132 3.85156C6.98132 5.03076 6.09509 5.89502 4.8866 5.89502Z" fill="#1A1A1A"/>
<path d="M12.1965 11.1538C12.8923 11.1538 13.3683 10.6558 13.3683 9.99658C13.3683 9.33008 12.8923 8.83936 12.1965 8.83936C11.508 8.83936 11.0246 9.33008 11.0246 9.99658C11.0246 10.6558 11.508 11.1538 12.1965 11.1538ZM12.1965 5.66064C12.8923 5.66064 13.3683 5.16992 13.3683 4.51074C13.3683 3.84424 12.8923 3.35352 12.1965 3.35352C11.508 3.35352 11.0246 3.84424 11.0246 4.51074C11.0246 5.16992 11.508 5.66064 12.1965 5.66064Z" fill="#1A1A1A"/>
<path d="M20.2241 11H22.0332V9.02979H23.4614V7.43311H22.0332V0.431152H19.3672C17.4995 3.24365 16.0127 5.59473 15.0605 7.34521V9.02979H20.2241V11ZM16.811 7.36719C18.0415 5.19922 19.1401 3.46338 20.1509 1.96924H20.2534V7.47705H16.811V7.36719Z" fill="#1A1A1A"/>
<path d="M27.49 11H29.3797V0.431152H27.4973L24.7361 2.36475V4.18115L27.3655 2.33545H27.49V11Z" fill="#1A1A1A"/>
</svg>
