<svg width="18" height="12" viewBox="0 0 18 12" fill="none" xmlns="http://www.w3.org/2000/svg">
<path fill-rule="evenodd" clip-rule="evenodd" d="M16.1666 0.666626H15.1666C14.6143 0.666626 14.1666 1.11434 14.1666 1.66663V10.3333C14.1666 10.8856 14.6143 11.3333 15.1666 11.3333H16.1666C16.7189 11.3333 17.1666 10.8856 17.1666 10.3333V1.66663C17.1666 1.11434 16.7189 0.666626 16.1666 0.666626ZM10.5 2.99996H11.5C12.0522 2.99996 12.5 3.44767 12.5 3.99996V10.3333C12.5 10.8856 12.0522 11.3333 11.5 11.3333H10.5C9.94767 11.3333 9.49996 10.8856 9.49996 10.3333V3.99996C9.49996 3.44767 9.94767 2.99996 10.5 2.99996ZM6.83329 5.33329H5.83329C5.28101 5.33329 4.83329 5.78101 4.83329 6.33329V10.3333C4.83329 10.8856 5.28101 11.3333 5.83329 11.3333H6.83329C7.38558 11.3333 7.83329 10.8856 7.83329 10.3333V6.33329C7.83329 5.78101 7.38558 5.33329 6.83329 5.33329ZM2.16663 7.33329H1.16663C0.614341 7.33329 0.166626 7.78101 0.166626 8.33329V10.3333C0.166626 10.8856 0.614341 11.3333 1.16663 11.3333H2.16663C2.71891 11.3333 3.16663 10.8856 3.16663 10.3333V8.33329C3.16663 7.78101 2.71891 7.33329 2.16663 7.33329Z" fill="#1A1A1A"/>
</svg>
