<svg width="29" height="30" viewBox="0 0 29 30" fill="none" xmlns="http://www.w3.org/2000/svg">
<path fill-rule="evenodd" clip-rule="evenodd" d="M8.178 5.14C9.744 4.1685 11.513 3.574 13.34 3.4L13.05 0.5C10.8022 0.693183 8.63389 1.42425 6.728 2.6315L8.178 5.14ZM17.893 3.8785C19.6185 4.4585 21.199 5.4155 22.5185 6.6625L24.65 4.531C23.0405 2.907 21.025 1.718 18.85 1.0655L17.893 3.8785ZM2.9 13.3035C3.16918 11.5261 3.83311 9.83165 4.843 8.3445L2.465 6.6335C1.1455 8.475 0.29 10.65 0 12.8975L2.9 13.3035ZM29 15.957V15C29 13.0425 28.6375 11.0995 27.869 9.287L25.2155 10.447C25.8245 11.897 26.1 13.434 26.1 15V15.725L29 15.957ZM3.625 24.5845L5.8 22.685C4.582 21.3075 3.6685 19.669 3.1465 17.9L0.435 18.6685C1.04251 20.8543 2.1326 22.8759 3.625 24.5845ZM14.5 29.5H14.703L14.7755 26.6H14.5C12.76 26.6 11.049 26.2375 9.4685 25.498L8.178 28.1515C10.15 29.036 12.325 29.5 14.5 29.5ZM24.853 19.5964H27.753V28.2964H19.053L19.053 25.3964L22.794 25.3964L18.85 21.3944L20.8946 19.35L24.853 23.2214V19.5964Z" fill="#0F1623"/>
</svg>
