<svg width="82" height="82" viewBox="0 0 82 82" fill="none" xmlns="http://www.w3.org/2000/svg">
<path d="M41 0C18.6 0 0.375 18.225 0.375 40.625C0.375 63.025 18.6 81.25 41 81.25C63.4 81.25 81.625 63.025 81.625 40.625C81.625 18.225 63.4 0 41 0ZM41 6.25C60.0219 6.25 75.375 21.6031 75.375 40.625C75.375 59.6469 60.0219 75 41 75C21.9781 75 6.625 59.6469 6.625 40.625C6.625 21.6031 21.9781 6.25 41 6.25ZM37.875 21.875V37.5H22.25V43.75H37.875V59.375H44.125V43.75H59.75V37.5H44.125V21.875H37.875Z" fill="#2463EB"/>
</svg>
