<svg width="24" height="24" viewBox="0 0 24 24" fill="none" xmlns="http://www.w3.org/2000/svg">
<path d="M12 10.586L17.243 5.34299C17.6335 4.95252 18.2665 4.95252 18.657 5.34299V5.34299C19.0475 5.73345 19.0475 6.36652 18.657 6.75699L13.414 12L18.657 17.243C19.0475 17.6335 19.0475 18.2665 18.657 18.657V18.657C18.2665 19.0475 17.6335 19.0475 17.243 18.657L12 13.414L6.75699 18.657C6.36652 19.0475 5.73345 19.0475 5.34299 18.657V18.657C4.95252 18.2665 4.95252 17.6335 5.34299 17.243L10.586 12L5.34299 6.75699C4.95252 6.36652 4.95252 5.73345 5.34299 5.34299V5.34299C5.73345 4.95252 6.36652 4.95252 6.75699 5.34299L12 10.586Z" fill="#52525B"/>
</svg>
